<?xml version="1.0" encoding="utf-8"?>
<!-- Generator: Adobe Illustrator 24.0.2, SVG Export Plug-In . SVG Version: 6.00 Build 0)  -->
<svg version="1.1" id="Layer_1" xmlns="http://www.w3.org/2000/svg" xmlns:xlink="http://www.w3.org/1999/xlink" x="0px" y="0px"
	 viewBox="0 0 200 200" style="enable-background:new 0 0 200 200;" xml:space="preserve">
<style type="text/css">
	.st0{fill:#FFFFFF;}
</style>
<path class="st0" d="M155.77,70.14H44.23c-5,0-9.05-4.05-9.05-9.05l0,0c0-5,4.05-9.05,9.05-9.05h111.54c5,0,9.05,4.05,9.05,9.05l0,0
	C164.82,66.08,160.77,70.14,155.77,70.14z M164.82,100L164.82,100c0-5-4.05-9.05-9.05-9.05H44.23c-5,0-9.05,4.05-9.05,9.05l0,0
	c0,5,4.05,9.05,9.05,9.05h111.54C160.77,109.05,164.82,105,164.82,100z M164.82,138.91L164.82,138.91c0-5-4.05-9.05-9.05-9.05H44.23
	c-5,0-9.05,4.05-9.05,9.05l0,0c0,5,4.05,9.05,9.05,9.05h111.54C160.77,147.96,164.82,143.91,164.82,138.91z"/>
</svg>
